<?xml version="1.0" standalone="no"?><!DOCTYPE svg PUBLIC "-//W3C//DTD SVG 1.1//EN" "http://www.w3.org/Graphics/SVG/1.1/DTD/svg11.dtd"><svg t="1685977206727" class="icon" viewBox="0 0 1270 1024" version="1.1" xmlns="http://www.w3.org/2000/svg" p-id="42763" xmlns:xlink="http://www.w3.org/1999/xlink" width="248.046875" height="200"><path d="M588.835 403.425l224.954 226.168c12.66-16.303 28.097-30.525 45.615-41.799L625.084 352.26c-9.192 19.079-21.507 36.25-36.25 51.165z m483.208-217.149l-170.146 382.96c20.986 3.815 40.585 10.927 58.45 20.986l166.33-374.807c-19.772-6.591-38.33-16.65-54.634-29.139z m0 0" p-id="42764" fill="#ffffff"></path><path d="M898.428 806.678c68.336 0 124.011-55.675 124.011-124.185S966.938 558.31 898.429 558.31c-68.337 0-124.012 55.675-124.012 124.184 0 68.683 55.675 124.185 124.011 124.185z m0 0" p-id="42765" fill="#ffffff"></path><path d="M898.428 620.575c34.342 0 61.919 27.75 61.919 62.092 0 34.341-27.75 62.092-61.919 62.092-34.341 0-61.919-27.75-61.919-62.092s27.578-62.092 61.92-62.092z m247.675-372.206c68.336 0 124.01-55.675 124.01-124.185S1214.787 0 1146.104 0c-68.336 0-124.01 55.675-124.01 124.184 0.346 68.51 55.674 124.185 124.01 124.185z m0 0" p-id="42766" fill="#ffffff"></path><path d="M1146.103 62.092c34.341 0 61.919 27.75 61.919 62.092s-27.751 62.092-61.919 62.092c-34.341 0-61.919-27.75-61.919-62.092 0.174-34.341 27.924-62.092 61.919-62.092zM451.469 341.333L186.103 659.425c16.477 12.835 30.7 28.618 41.973 46.483l265.54-318.092c-16.651-13.008-30.7-28.792-42.147-46.483z m0 0" p-id="42767" fill="#ffffff"></path><path d="M247.848 744.759c0-68.51-55.501-124.184-124.01-124.184C55.674 620.575 0 676.075 0 744.759c0 68.51 55.501 124.184 124.01 124.184 68.51-0.173 123.838-55.675 123.838-124.184z m0 0" p-id="42768" fill="#ffffff"></path><path d="M62.092 744.759c0-34.342 27.75-62.092 61.919-62.092 34.168 0 61.919 27.75 61.919 62.092 0 34.341-27.751 62.092-61.92 62.092-34.167-0.173-61.918-27.924-61.918-62.092zM1177.15 899.816c0 34.341-27.75 62.092-61.919 62.092H247.848c-27.404 0-50.818-17.865-58.797-42.667-20.292 7.458-42.146 11.62-64.867 11.62 0 51.513 41.626 93.139 92.965 93.139h929.3c51.34 0 92.966-41.626 92.966-93.138V285.485c-18.906 10.927-39.719 18.732-61.92 22.2v592.13h-0.346zM186.103 155.23c0-34.341 27.75-62.092 61.919-62.092h715.1a191.082 191.082 0 0 1 22.2-62.092H217.15c-51.339 0-92.965 41.626-92.965 93.138v434.298c21.68 0 42.494 3.816 61.919 10.58V155.23z m0 0" p-id="42769" fill="#ffffff"></path><path d="M526.743 465.344c68.336 0 124.01-55.675 124.01-124.184s-55.501-124.184-124.01-124.184c-68.336 0-124.011 55.674-124.011 124.184 0.173 68.683 55.675 124.184 124.01 124.184z m0 0" p-id="42770" fill="#ffffff"></path><path d="M526.743 279.241c34.341 0 61.918 27.75 61.918 62.092s-27.75 62.092-61.918 62.092c-34.342 0-61.92-27.75-61.92-62.092 0-34.168 27.752-62.092 61.92-62.092z m0 0" p-id="42771" fill="#ffffff"></path></svg>