<?xml version="1.0" standalone="no"?><!DOCTYPE svg PUBLIC "-//W3C//DTD SVG 1.1//EN" "http://www.w3.org/Graphics/SVG/1.1/DTD/svg11.dtd"><svg t="1685977127907" class="icon" viewBox="0 0 1024 1024" version="1.1" xmlns="http://www.w3.org/2000/svg" p-id="40883" id="mx_n_1685977127909" xmlns:xlink="http://www.w3.org/1999/xlink" width="200" height="200"><path d="M952.73 586.62l-0.05-0.01c0 0.03-0.01 0.06-0.01 0.09a30.03 30.03 0 0 1-19.15 23.4 30.081 30.081 0 0 1-29.82-5.09 29.992 29.992 0 0 1-10.27-28.42c0.1-0.58 0.22-1.16 0.35-1.73 3.43-20.84 5.15-41.92 5.15-63.03 0-213.72-173.49-386.96-387.49-386.96-214.01 0-387.5 173.25-387.5 386.96 0 213.71 173.49 386.96 387.5 386.96v0.03c16.59 0 30.04 13.43 30.04 30s-13.45 30-30.04 30c-0.28 0-0.55-0.03-0.83-0.04-246.82-0.47-446.76-200.39-446.76-446.96 0-246.85 200.38-446.95 447.58-446.95C758.61 64.87 959 264.97 959 511.82c0 25.06-2.1 50.08-6.27 74.8z m-252.28 220.1c16.59 0 30.04 13.43 30.04 30v91.8c0 16.57-13.45 30-30.04 30s-30.04-13.43-30.04-30v-91.8c0-16.57 13.45-30 30.04-30z m114.14-129.98c16.59 0 30.04 13.43 30.04 30v221.79c0 16.57-13.45 30-30.04 30s-30.04-13.43-30.04-30V706.74c0-16.57 13.45-30 30.04-30z m114.15 47.99c16.59 0 30.04 13.43 30.04 30v173.79c0 16.57-13.44 30-30.04 30-16.59 0-30.04-13.43-30.04-30V754.73c0-16.57 13.45-30 30.04-30z m0 0" p-id="40884" fill="#ffffff"></path><path d="M356.97 288.32h257.98c37.99 0 68.8 30.8 68.8 68.8v254.41c0 37.99-30.8 68.8-68.8 68.8H356.97c-37.99 0-68.8-30.8-68.8-68.8V357.11a68.82 68.82 0 0 1 20.15-48.65 68.852 68.852 0 0 1 48.65-20.14z m120.8 147.98h45.99c12.37 0 22.39-10.03 22.39-22.39 0-12.37-10.03-22.39-22.39-22.39h-98c-4.56 0-8.94 1.81-12.16 5.04-3.22 3.23-5.04 7.6-5.04 12.16v98c0.33 12.12 10.26 21.77 22.38 21.77s22.05-9.65 22.38-21.77v-34.69l92.82 102.2a19.27 19.27 0 0 0 14.23 6.31 19.27 19.27 0 0 0 14.25-6.27c8.08-8.85 8.09-22.4 0.03-31.27l-96.88-106.7z m184.82 299.15h-251.6c-9.26 0-16.77-7.51-16.77-16.77s7.51-16.77 16.77-16.77h251.62c21.59-0.03 39.08-17.52 39.11-39.11V409.33c0-5.99 3.2-11.53 8.38-14.52a16.798 16.798 0 0 1 16.77 0c5.19 3 8.38 8.53 8.38 14.52v253.48c-0.05 40.1-32.54 72.6-72.65 72.65h-0.01z m0 0" p-id="40885" fill="#ffffff"></path></svg>