<?xml version="1.0" standalone="no"?><!DOCTYPE svg PUBLIC "-//W3C//DTD SVG 1.1//EN" "http://www.w3.org/Graphics/SVG/1.1/DTD/svg11.dtd"><svg t="1686731883050" class="icon" viewBox="0 0 1024 1024" version="1.1" xmlns="http://www.w3.org/2000/svg" p-id="5726" xmlns:xlink="http://www.w3.org/1999/xlink" width="200" height="200"><path d="M1003.52 819.2L20.48 0h901.12c45.056 0 81.92 36.864 81.92 81.92v737.28z" fill="#FF9700" p-id="5727"></path><path d="M688.128 389.12c-8.192 0-16.384-4.096-20.48-8.192l-98.304-102.4c-12.288-12.288-12.288-32.768 0-45.056 12.288-12.288 32.768-12.288 45.056 0l73.728 77.824 163.84-176.128c12.288-12.288 32.768-12.288 45.056 0 12.288 12.288 12.288 32.768 0 45.056l-188.416 200.704c-4.096 4.096-12.288 8.192-20.48 8.192z" fill="#FFFFFF" p-id="5728"></path></svg>