<?xml version="1.0" standalone="no"?><!DOCTYPE svg PUBLIC "-//W3C//DTD SVG 1.1//EN" "http://www.w3.org/Graphics/SVG/1.1/DTD/svg11.dtd"><svg t="1685966053624" class="icon" viewBox="0 0 1024 1024" version="1.1" xmlns="http://www.w3.org/2000/svg" p-id="9888" xmlns:xlink="http://www.w3.org/1999/xlink" width="200" height="200"><path d="M512 512m-472.615385 0a472.615385 472.615385 0 1 0 945.23077 0 472.615385 472.615385 0 1 0-945.23077 0Z" fill="#F2DA69" p-id="9889"></path><path d="M417.870769 787.692308a15.832615 15.832615 0 1 1 0-31.82277h227.643077c8.822154 0 15.950769 7.089231 15.950769 15.911385a15.950769 15.950769 0 0 1-15.990153 15.911385h-227.564308zM339.731692 307.515077a31.901538 31.901538 0 0 0-32.019692 31.822769v293.927385c0 8.428308 3.387077 16.541538 9.373538 22.449231a32.098462 32.098462 0 0 0 22.646154 9.373538h384a32.098462 32.098462 0 0 0 22.646154-9.334154 31.744 31.744 0 0 0 9.373539-22.488615V339.337846a31.901538 31.901538 0 0 0-32.019693-31.822769h-384z m0-31.822769h384A63.803077 63.803077 0 0 1 787.692308 339.337846v293.927385c0 16.856615-6.734769 33.083077-18.747077 44.977231a64.196923 64.196923 0 0 1-45.252923 18.668307h-384a64.196923 64.196923 0 0 1-45.252923-18.668307A63.488 63.488 0 0 1 275.692308 633.304615V339.337846A63.803077 63.803077 0 0 1 339.692308 275.692308z" fill="#FFFFFF" p-id="9890"></path><path d="M498.412308 500.420923l-80.423385 86.173539c-5.986462 6.104615-15.005538 5.435077-20.361846-1.496616a19.574154 19.574154 0 0 1 0.708923-24.064l86.803692-93.065846a18.313846 18.313846 0 0 1 28.672 1.260308l62.857846 78.690461 106.456616-147.968c5.238154-7.286154 14.493538-8.152615 20.637538-1.969231a19.534769 19.534769 0 0 1 1.654154 24.339693l-112.797538 156.829538c-0.748308 1.024-0.748308 1.024-1.575385 1.929846a18.825846 18.825846 0 0 1-14.611692 6.616616 19.259077 19.259077 0 0 1-14.336-7.601231l-63.684923-79.675077z" fill="#FFFFFF" p-id="9891"></path></svg>